<?xml version="1.0" encoding="UTF-8" standalone="no"?>
<!DOCTYPE svg PUBLIC "-//W3C//DTD SVG 1.1//EN" "http://www.w3.org/Graphics/SVG/1.1/DTD/svg11.dtd">
<!-- 由 Microsoft Visio, SVG Export 生成 CloudNativeHistory.svg Page-1 -->
<svg xmlns="http://www.w3.org/2000/svg" xmlns:xlink="http://www.w3.org/1999/xlink" xmlns:ev="http://www.w3.org/2001/xml-events"
		xmlns:v="http://schemas.microsoft.com/visio/2003/SVGExtensions/" width="11.2659in" height="4.3686in"
		viewBox="0 0 811.147 314.539" xml:space="preserve" color-interpolation-filters="sRGB" class="st9">
	<v:documentProperties v:langID="2052" v:metric="true" v:viewMarkup="false">
		<v:userDefs>
			<v:ud v:nameU="msvSubprocessMaster" v:prompt="" v:val="VT4(Rectangle)"/>
			<v:ud v:nameU="msvNoAutoConnect" v:val="VT0(1):26"/>
		</v:userDefs>
	</v:documentProperties>

	<style type="text/css">
	<![CDATA[
		.st1 {fill:url(#grad0-4);stroke:#3c63ac;stroke-width:0.75}
		.st2 {fill:#3c63ac;font-family:Calibri;font-size:1.5em}
		.st3 {fill:url(#grad0-21);stroke:#3c63ac;stroke-width:0.75}
		.st4 {fill:#3c63ac;font-family:黑体;font-size:1.16666em}
		.st5 {font-size:1em}
		.st6 {fill:#3c63ac;font-family:Calibri;font-size:1.16666em}
		.st7 {font-family:黑体;font-size:1em}
		.st8 {font-family:Calibri;font-size:1em}
		.st9 {fill:none;fill-rule:evenodd;font-size:12px;overflow:visible;stroke-linecap:square;stroke-miterlimit:3}
	]]>
	</style>

	<defs id="Patterns_And_Gradients">
		<linearGradient id="grad0-4" x1="0" y1="0" x2="1" y2="0" gradientTransform="rotate(60 0.5 0.5)">
			<stop offset="0" stop-color="#e9ebf5" stop-opacity="1"/>
			<stop offset="0.24" stop-color="#f4f5fa" stop-opacity="1"/>
			<stop offset="0.54" stop-color="#feffff" stop-opacity="1"/>
		</linearGradient>
		<linearGradient id="grad0-21" x1="0" y1="0" x2="1" y2="0" gradientTransform="rotate(60 0.5 0.5)">
			<stop offset="0" stop-color="#e8ebf4" stop-opacity="1"/>
			<stop offset="0.24" stop-color="#f4f5f9" stop-opacity="1"/>
			<stop offset="0.54" stop-color="#feffff" stop-opacity="1"/>
		</linearGradient>
	</defs>
	<g v:mID="0" v:index="1" v:groupContext="foregroundPage">
		<v:userDefs>
			<v:ud v:nameU="msvThemeOrder" v:val="VT0(0):26"/>
		</v:userDefs>
		<title>页-1</title>
		<v:pageProperties v:drawingScale="0.0393701" v:pageScale="0.0393701" v:drawingUnits="24" v:shadowOffsetX="8.50394"
				v:shadowOffsetY="-8.50394"/>
		<g id="shape4-1" v:mID="4" v:groupContext="shape" transform="translate(35.5467,-152.544)">
			<title>矩形</title>
			<desc>1955</desc>
			<v:userDefs>
				<v:ud v:nameU="visVersion" v:val="VT0(15):26"/>
			</v:userDefs>
			<v:textBlock v:margins="rect(4,4,4,4)" v:tabSpace="42.5197"/>
			<v:textRect cx="28.51" cy="302.492" width="57.02" height="24.0945"/>
			<rect x="0" y="290.445" width="57.02" height="24.0945" class="st1"/>
			<text x="10.26" y="307.89" class="st2" v:langID="2052"><v:paragraph v:horizAlign="1"/><v:tabList/>1955</text>		</g>
		<g id="shape5-6" v:mID="5" v:groupContext="shape" transform="translate(92.5667,-152.544)">
			<title>矩形.5</title>
			<desc>1959</desc>
			<v:userDefs>
				<v:ud v:nameU="visVersion" v:val="VT0(15):26"/>
			</v:userDefs>
			<v:textBlock v:margins="rect(4,4,4,4)" v:tabSpace="42.5197"/>
			<v:textRect cx="28.51" cy="302.492" width="57.02" height="24.0945"/>
			<rect x="0" y="290.445" width="57.02" height="24.0945" class="st1"/>
			<text x="10.26" y="307.89" class="st2" v:langID="2052"><v:paragraph v:horizAlign="1"/><v:tabList/>1959</text>		</g>
		<g id="shape6-10" v:mID="6" v:groupContext="shape" transform="translate(149.587,-152.544)">
			<title>矩形.6</title>
			<desc>1965</desc>
			<v:userDefs>
				<v:ud v:nameU="visVersion" v:val="VT0(15):26"/>
			</v:userDefs>
			<v:textBlock v:margins="rect(4,4,4,4)" v:tabSpace="42.5197"/>
			<v:textRect cx="28.51" cy="302.492" width="57.02" height="24.0945"/>
			<rect x="0" y="290.445" width="57.02" height="24.0945" class="st1"/>
			<text x="10.26" y="307.89" class="st2" v:langID="2052"><v:paragraph v:horizAlign="1"/><v:tabList/>1965</text>		</g>
		<g id="shape7-14" v:mID="7" v:groupContext="shape" transform="translate(206.607,-152.544)">
			<title>矩形.7</title>
			<desc>1969</desc>
			<v:userDefs>
				<v:ud v:nameU="visVersion" v:val="VT0(15):26"/>
			</v:userDefs>
			<v:textBlock v:margins="rect(4,4,4,4)" v:tabSpace="42.5197"/>
			<v:textRect cx="28.51" cy="302.492" width="57.02" height="24.0945"/>
			<rect x="0" y="290.445" width="57.02" height="24.0945" class="st1"/>
			<text x="10.26" y="307.89" class="st2" v:langID="2052"><v:paragraph v:horizAlign="1"/><v:tabList/>1969</text>		</g>
		<g id="shape9-18" v:mID="9" v:groupContext="shape" transform="translate(18.75,-231.65)">
			<title>椭圆形</title>
			<desc>分时理论 提出</desc>
			<v:userDefs>
				<v:ud v:nameU="visVersion" v:val="VT0(15):26"/>
			</v:userDefs>
			<v:textBlock v:margins="rect(4,4,4,4)" v:tabSpace="42.5197"/>
			<v:textRect cx="45.3067" cy="282.47" width="79.29" height="56.1222"/>
			<path d="M0 282.47 A45.3067 32.0698 0 0 1 90.61 282.47 A45.3067 32.0698 0 0 1 0 282.47 Z" class="st3"/>
			<text x="17.31" y="277.81" class="st4" v:langID="2052"><v:paragraph v:horizAlign="1"/><v:tabList/>分时理论<v:newlineChar/><tspan
						x="31.31" dy="1.331em" class="st5">提出</tspan></text>		</g>
		<g id="shape10-24" v:mID="10" v:groupContext="shape" transform="translate(263.627,-152.544)">
			<title>矩形.10</title>
			<desc>1978</desc>
			<v:userDefs>
				<v:ud v:nameU="visVersion" v:val="VT0(15):26"/>
			</v:userDefs>
			<v:textBlock v:margins="rect(4,4,4,4)" v:tabSpace="42.5197"/>
			<v:textRect cx="28.51" cy="302.492" width="57.02" height="24.0945"/>
			<rect x="0" y="290.445" width="57.02" height="24.0945" class="st1"/>
			<text x="10.26" y="307.89" class="st2" v:langID="2052"><v:paragraph v:horizAlign="1"/><v:tabList/>1978</text>		</g>
		<g id="shape11-28" v:mID="11" v:groupContext="shape" transform="translate(73.8144,-18.75)">
			<title>椭圆形.11</title>
			<desc>提出 虚拟化概念</desc>
			<v:userDefs>
				<v:ud v:nameU="visVersion" v:val="VT0(15):26"/>
			</v:userDefs>
			<v:textBlock v:margins="rect(4,4,4,4)" v:tabSpace="42.5197"/>
			<v:textRect cx="47.3508" cy="283.075" width="82.87" height="55.0633"/>
			<path d="M0 283.07 A47.3508 31.4647 0 1 1 94.7 283.07 A47.3508 31.4647 0 0 1 0 283.07 Z" class="st3"/>
			<text x="33.35" y="278.42" class="st4" v:langID="2052"><v:paragraph v:horizAlign="1"/><v:tabList/>提出<v:newlineChar/><tspan
						x="12.35" dy="1.331em" class="st5">虚拟化概念</tspan></text>		</g>
		<g id="shape12-33" v:mID="12" v:groupContext="shape" transform="translate(-193.374,233.253) rotate(-90.0716)">
			<title>普通箭头.12</title>
			<v:userDefs>
				<v:ud v:nameU="visVersion" v:val="VT0(15):26"/>
				<v:ud v:nameU="ArrowType" v:prompt="" v:val="VT0(2):26"/>
			</v:userDefs>
			<path d="M0 314.54 L11.34 303.2 L11.34 308.87 L70.86 308.87 L70.86 314.54 L70.86 320.21 L11.34 320.21 L11.34 325.88 L0
						 314.54 Z" class="st3"/>
		</g>
		<g id="shape13-36" v:mID="13" v:groupContext="shape" transform="translate(133.342,-231.65)">
			<title>椭圆形.13</title>
			<desc>分时共享 系统</desc>
			<v:userDefs>
				<v:ud v:nameU="visVersion" v:val="VT0(15):26"/>
			</v:userDefs>
			<v:textBlock v:margins="rect(4,4,4,4)" v:tabSpace="42.5197"/>
			<v:textRect cx="45.3067" cy="282.47" width="79.29" height="56.1222"/>
			<path d="M0 282.47 A45.3067 32.0698 0 0 1 90.61 282.47 A45.3067 32.0698 0 0 1 0 282.47 Z" class="st3"/>
			<text x="17.31" y="277.81" class="st4" v:langID="2052"><v:paragraph v:horizAlign="1"/><v:tabList/>分时共享<v:newlineChar/><tspan
						x="31.31" dy="1.331em" class="st5">系统</tspan></text>		</g>
		<g id="shape15-41" v:mID="15" v:groupContext="shape" transform="translate(493.172,86.0456) rotate(90.5749)">
			<title>普通箭头.15</title>
			<v:custProps>
				<v:cp v:nameU="Row_1" v:lbl="属性1" v:type="0" v:langID="2052"/>
			</v:custProps>
			<v:userDefs>
				<v:ud v:nameU="visVersion" v:val="VT0(15):26"/>
				<v:ud v:nameU="ArrowType" v:prompt="" v:val="VT0(2):26"/>
			</v:userDefs>
			<path d="M0 314.54 L11.34 303.2 L11.34 308.87 L55.01 308.87 L55.01 314.54 L55.01 320.21 L11.34 320.21 L11.34 325.88 L0
						 314.54 Z" class="st3"/>
		</g>
		<g id="shape16-44" v:mID="16" v:groupContext="shape" transform="translate(189.776,-18.75)">
			<title>椭圆形.16</title>
			<desc>ARPANET 出现</desc>
			<v:userDefs>
				<v:ud v:nameU="visVersion" v:val="VT0(15):26"/>
			</v:userDefs>
			<v:textBlock v:margins="rect(4,4,4,4)" v:tabSpace="42.5197"/>
			<v:textRect cx="47.3508" cy="283.075" width="82.87" height="55.0633"/>
			<path d="M0 283.07 A47.3508 31.4647 0 1 1 94.7 283.07 A47.3508 31.4647 0 0 1 0 283.07 Z" class="st3"/>
			<text x="20.49" y="277.96" class="st6" v:langID="2052"><v:paragraph v:horizAlign="1"/><v:tabList/>ARPANET<v:newlineChar/><tspan
						x="33.35" dy="1.298em" class="st7">出现</tspan></text>		</g>
		<g id="shape17-49" v:mID="17" v:groupContext="shape" transform="translate(-77.2863,241.779) rotate(-91.6248)">
			<title>普通箭头.17</title>
			<v:userDefs>
				<v:ud v:nameU="visVersion" v:val="VT0(15):26"/>
				<v:ud v:nameU="ArrowType" v:prompt="" v:val="VT0(2):26"/>
			</v:userDefs>
			<path d="M0 314.54 L11.34 303.2 L11.34 308.87 L70.89 308.87 L70.89 314.54 L70.89 320.21 L11.34 320.21 L11.34 325.88 L0
						 314.54 Z" class="st3"/>
		</g>
		<g id="shape18-52" v:mID="18" v:groupContext="shape" transform="translate(246.823,-231.65)">
			<title>椭圆形.18</title>
			<desc>Raid技术</desc>
			<v:userDefs>
				<v:ud v:nameU="visVersion" v:val="VT0(15):26"/>
			</v:userDefs>
			<v:textBlock v:margins="rect(4,4,4,4)" v:tabSpace="42.5197"/>
			<v:textRect cx="45.3067" cy="282.47" width="79.29" height="56.1222"/>
			<path d="M0 282.47 A45.3067 32.0698 0 0 1 90.61 282.47 A45.3067 32.0698 0 0 1 0 282.47 Z" class="st3"/>
			<text x="18.87" y="287.13" class="st6" v:langID="2052"><v:paragraph v:horizAlign="1"/><v:tabList/>Raid<tspan
						class="st7">技术</tspan></text>		</g>
		<g id="shape21-57" v:mID="21" v:groupContext="shape" transform="translate(378.596,82.8897) rotate(90)">
			<title>普通箭头.21</title>
			<v:custProps>
				<v:cp v:nameU="Row_1" v:lbl="属性1" v:type="0" v:langID="2052"/>
			</v:custProps>
			<v:userDefs>
				<v:ud v:nameU="visVersion" v:val="VT0(15):26"/>
				<v:ud v:nameU="ArrowType" v:prompt="" v:val="VT0(2):26"/>
			</v:userDefs>
			<path d="M0 314.54 L11.34 303.2 L11.34 308.87 L55.01 308.87 L55.01 314.54 L55.01 320.21 L11.34 320.21 L11.34 325.88 L0
						 314.54 Z" class="st3"/>
		</g>
		<g id="shape22-60" v:mID="22" v:groupContext="shape" transform="translate(320.647,-152.544)">
			<title>矩形.22</title>
			<desc>1990</desc>
			<v:userDefs>
				<v:ud v:nameU="visVersion" v:val="VT0(15):26"/>
			</v:userDefs>
			<v:textBlock v:margins="rect(4,4,4,4)" v:tabSpace="42.5197"/>
			<v:textRect cx="28.51" cy="302.492" width="57.02" height="24.0945"/>
			<rect x="0" y="290.445" width="57.02" height="24.0945" class="st1"/>
			<text x="10.26" y="307.89" class="st2" v:langID="2052"><v:paragraph v:horizAlign="1"/><v:tabList/>1990</text>		</g>
		<g id="shape23-64" v:mID="23" v:groupContext="shape" transform="translate(377.667,-152.544)">
			<title>矩形.23</title>
			<desc>1998</desc>
			<v:userDefs>
				<v:ud v:nameU="visVersion" v:val="VT0(15):26"/>
			</v:userDefs>
			<v:textBlock v:margins="rect(4,4,4,4)" v:tabSpace="42.5197"/>
			<v:textRect cx="28.51" cy="302.492" width="57.02" height="24.0945"/>
			<rect x="0" y="290.445" width="57.02" height="24.0945" class="st1"/>
			<text x="10.26" y="307.89" class="st2" v:langID="2052"><v:paragraph v:horizAlign="1"/><v:tabList/>1998</text>		</g>
		<g id="shape24-68" v:mID="24" v:groupContext="shape" transform="translate(434.905,-152.544)">
			<title>矩形.24</title>
			<desc>1999</desc>
			<v:userDefs>
				<v:ud v:nameU="visVersion" v:val="VT0(15):26"/>
			</v:userDefs>
			<v:textBlock v:margins="rect(4,4,4,4)" v:tabSpace="42.5197"/>
			<v:textRect cx="28.51" cy="302.492" width="57.02" height="24.0945"/>
			<rect x="0" y="290.445" width="57.02" height="24.0945" class="st1"/>
			<text x="10.26" y="307.89" class="st2" v:langID="2052"><v:paragraph v:horizAlign="1"/><v:tabList/>1999</text>		</g>
		<g id="shape25-72" v:mID="25" v:groupContext="shape" transform="translate(491.707,-152.544)">
			<title>矩形.25</title>
			<desc>2000</desc>
			<v:userDefs>
				<v:ud v:nameU="visVersion" v:val="VT0(15):26"/>
			</v:userDefs>
			<v:textBlock v:margins="rect(4,4,4,4)" v:tabSpace="42.5197"/>
			<v:textRect cx="28.51" cy="302.492" width="57.02" height="24.0945"/>
			<rect x="0" y="290.445" width="57.02" height="24.0945" class="st1"/>
			<text x="10.26" y="307.89" class="st2" v:langID="2052"><v:paragraph v:horizAlign="1"/><v:tabList/>2000</text>		</g>
		<g id="shape26-76" v:mID="26" v:groupContext="shape" transform="translate(548.727,-152.544)">
			<title>矩形.26</title>
			<desc>2002</desc>
			<v:userDefs>
				<v:ud v:nameU="visVersion" v:val="VT0(15):26"/>
			</v:userDefs>
			<v:textBlock v:margins="rect(4,4,4,4)" v:tabSpace="42.5197"/>
			<v:textRect cx="28.51" cy="302.492" width="57.02" height="24.0945"/>
			<rect x="0" y="290.445" width="57.02" height="24.0945" class="st1"/>
			<text x="10.26" y="307.89" class="st2" v:langID="2052"><v:paragraph v:horizAlign="1"/><v:tabList/>2002</text>		</g>
		<g id="shape27-80" v:mID="27" v:groupContext="shape" transform="translate(605.747,-152.544)">
			<title>矩形.27</title>
			<desc>2005</desc>
			<v:userDefs>
				<v:ud v:nameU="visVersion" v:val="VT0(15):26"/>
			</v:userDefs>
			<v:textBlock v:margins="rect(4,4,4,4)" v:tabSpace="42.5197"/>
			<v:textRect cx="28.51" cy="302.492" width="57.02" height="24.0945"/>
			<rect x="0" y="290.445" width="57.02" height="24.0945" class="st1"/>
			<text x="10.26" y="307.89" class="st2" v:langID="2052"><v:paragraph v:horizAlign="1"/><v:tabList/>2005</text>		</g>
		<g id="shape28-84" v:mID="28" v:groupContext="shape" transform="translate(662.767,-152.544)">
			<title>矩形.28</title>
			<desc>2006</desc>
			<v:userDefs>
				<v:ud v:nameU="visVersion" v:val="VT0(15):26"/>
			</v:userDefs>
			<v:textBlock v:margins="rect(4,4,4,4)" v:tabSpace="42.5197"/>
			<v:textRect cx="28.51" cy="302.492" width="57.02" height="24.0945"/>
			<rect x="0" y="290.445" width="57.02" height="24.0945" class="st1"/>
			<text x="10.26" y="307.89" class="st2" v:langID="2052"><v:paragraph v:horizAlign="1"/><v:tabList/>2006</text>		</g>
		<g id="shape29-88" v:mID="29" v:groupContext="shape" transform="translate(719.787,-152.544)">
			<title>矩形.29</title>
			<desc>2009</desc>
			<v:userDefs>
				<v:ud v:nameU="visVersion" v:val="VT0(15):26"/>
			</v:userDefs>
			<v:textBlock v:margins="rect(4,4,4,4)" v:tabSpace="42.5197"/>
			<v:textRect cx="28.51" cy="302.492" width="57.02" height="24.0945"/>
			<rect x="0" y="290.445" width="57.02" height="24.0945" class="st1"/>
			<text x="10.26" y="307.89" class="st2" v:langID="2052"><v:paragraph v:horizAlign="1"/><v:tabList/>2009</text>		</g>
		<g id="shape31-92" v:mID="31" v:groupContext="shape" transform="translate(302.842,-18.75)">
			<title>椭圆形.31</title>
			<desc>网格计算</desc>
			<v:userDefs>
				<v:ud v:nameU="visVersion" v:val="VT0(15):26"/>
			</v:userDefs>
			<v:textBlock v:margins="rect(4,4,4,4)" v:tabSpace="42.5197"/>
			<v:textRect cx="47.3508" cy="283.075" width="82.87" height="55.0633"/>
			<path d="M0 283.07 A47.3508 31.4647 0 1 1 94.7 283.07 A47.3508 31.4647 0 0 1 0 283.07 Z" class="st3"/>
			<text x="19.35" y="287.73" class="st4" v:langID="2052"><v:paragraph v:horizAlign="1"/><v:tabList/>网格计算</text>		</g>
		<g id="shape32-96" v:mID="32" v:groupContext="shape" transform="translate(35.6864,237.457) rotate(-90.8374)">
			<title>普通箭头.32</title>
			<v:userDefs>
				<v:ud v:nameU="visVersion" v:val="VT0(15):26"/>
				<v:ud v:nameU="ArrowType" v:prompt="" v:val="VT0(2):26"/>
			</v:userDefs>
			<path d="M0 314.54 L11.34 303.2 L11.34 308.87 L70.87 308.87 L70.87 314.54 L70.87 320.21 L11.34 320.21 L11.34 325.88 L0
						 314.54 Z" class="st3"/>
		</g>
		<g id="shape33-99" v:mID="33" v:groupContext="shape" transform="translate(361.531,-231.65)">
			<title>椭圆形.33</title>
			<desc>引入x86 虚拟技术</desc>
			<v:userDefs>
				<v:ud v:nameU="visVersion" v:val="VT0(15):26"/>
			</v:userDefs>
			<v:textBlock v:margins="rect(4,4,4,4)" v:tabSpace="42.5197"/>
			<v:textRect cx="45.3067" cy="282.47" width="79.29" height="56.1222"/>
			<path d="M0 282.47 A45.3067 32.0698 0 0 1 90.61 282.47 A45.3067 32.0698 0 0 1 0 282.47 Z" class="st3"/>
			<text x="21.18" y="277.81" class="st4" v:langID="2052"><v:paragraph v:horizAlign="1"/><v:tabList/>引入<tspan class="st8">x86<v:newlineChar/></tspan><tspan
						x="17.31" dy="1.331em" class="st5">虚拟技术</tspan></text>		</g>
		<g id="shape35-105" v:mID="35" v:groupContext="shape" transform="translate(721.354,86.6689) rotate(90.6884)">
			<title>普通箭头.35</title>
			<v:userDefs>
				<v:ud v:nameU="visVersion" v:val="VT0(15):26"/>
				<v:ud v:nameU="ArrowType" v:prompt="" v:val="VT0(2):26"/>
			</v:userDefs>
			<path d="M0 314.54 L11.34 303.2 L11.34 308.87 L55.02 308.87 L55.02 314.54 L55.02 320.21 L11.34 320.21 L11.34 325.88 L0
						 314.54 Z" class="st3"/>
		</g>
		<g id="shape36-108" v:mID="36" v:groupContext="shape" transform="translate(606.669,82.8505) rotate(89.9929)">
			<title>普通箭头.36</title>
			<v:userDefs>
				<v:ud v:nameU="visVersion" v:val="VT0(15):26"/>
				<v:ud v:nameU="ArrowType" v:prompt="" v:val="VT0(2):26"/>
			</v:userDefs>
			<path d="M0 314.54 L11.34 303.2 L11.34 308.87 L55.01 308.87 L55.01 314.54 L55.01 320.21 L11.34 320.21 L11.34 325.88 L0
						 314.54 Z" class="st3"/>
		</g>
		<g id="shape38-111" v:mID="38" v:groupContext="shape" transform="translate(416.227,-18.75)">
			<title>椭圆形.38</title>
			<desc>VMWare 工作站</desc>
			<v:userDefs>
				<v:ud v:nameU="visVersion" v:val="VT0(15):26"/>
			</v:userDefs>
			<v:textBlock v:margins="rect(4,4,4,4)" v:tabSpace="42.5197"/>
			<v:textRect cx="47.3508" cy="283.075" width="82.87" height="55.0633"/>
			<path d="M0 283.07 A47.3508 31.4647 0 1 1 94.7 283.07 A47.3508 31.4647 0 0 1 0 283.07 Z" class="st3"/>
			<text x="21.89" y="277.96" class="st6" v:langID="2052"><v:paragraph v:horizAlign="1"/><v:tabList/>VMWare<v:newlineChar/><tspan
						x="26.35" dy="1.298em" class="st7">工作站</tspan></text>		</g>
		<g id="shape39-116" v:mID="39" v:groupContext="shape" transform="translate(149.04,233.586) rotate(-90.1322)">
			<title>普通箭头.39</title>
			<v:userDefs>
				<v:ud v:nameU="visVersion" v:val="VT0(15):26"/>
				<v:ud v:nameU="ArrowType" v:prompt="" v:val="VT0(2):26"/>
			</v:userDefs>
			<path d="M0 314.54 L11.34 303.2 L11.34 308.87 L70.86 308.87 L70.86 314.54 L70.86 320.21 L11.34 320.21 L11.34 325.88 L0
						 314.54 Z" class="st3"/>
		</g>
		<g id="shape40-119" v:mID="40" v:groupContext="shape" transform="translate(472.13,-231.65)">
			<title>椭圆形.40</title>
			<desc>颁布 VPN标准</desc>
			<v:userDefs>
				<v:ud v:nameU="visVersion" v:val="VT0(15):26"/>
			</v:userDefs>
			<v:textBlock v:margins="rect(4,4,4,4)" v:tabSpace="42.5197"/>
			<v:textRect cx="45.3067" cy="282.47" width="79.29" height="56.1222"/>
			<path d="M0 282.47 A45.3067 32.0698 0 0 1 90.61 282.47 A45.3067 32.0698 0 0 1 0 282.47 Z" class="st3"/>
			<text x="31.31" y="277.81" class="st4" v:langID="2052"><v:paragraph v:horizAlign="1"/><v:tabList/>颁布<v:newlineChar/><tspan
						x="19.2" dy="1.331em" class="st8">VPN</tspan>标准</text>		</g>
		<g id="shape41-124" v:mID="41" v:groupContext="shape" transform="translate(831.575,67.014) rotate(87.1069)">
			<title>普通箭头.41</title>
			<v:userDefs>
				<v:ud v:nameU="visVersion" v:val="VT0(15):26"/>
				<v:ud v:nameU="ArrowType" v:prompt="" v:val="VT0(2):26"/>
			</v:userDefs>
			<path d="M0 314.54 L11.34 303.2 L11.34 308.87 L55.08 308.87 L55.08 314.54 L55.08 320.21 L11.34 320.21 L11.34 325.88 L0
						 314.54 Z" class="st3"/>
		</g>
		<g id="shape42-127" v:mID="42" v:groupContext="shape" transform="translate(529.613,-18.75)">
			<title>椭圆形.42</title>
			<desc>AWS上线</desc>
			<v:userDefs>
				<v:ud v:nameU="visVersion" v:val="VT0(15):26"/>
			</v:userDefs>
			<v:textBlock v:margins="rect(4,4,4,4)" v:tabSpace="42.5197"/>
			<v:textRect cx="47.3508" cy="283.075" width="82.87" height="55.0633"/>
			<path d="M0 283.07 A47.3508 31.4647 0 1 1 94.7 283.07 A47.3508 31.4647 0 0 1 0 283.07 Z" class="st3"/>
			<text x="19.86" y="287.73" class="st6" v:langID="2052"><v:paragraph v:horizAlign="1"/><v:tabList/>AWS<tspan class="st7">上线</tspan></text>		</g>
		<g id="shape43-132" v:mID="43" v:groupContext="shape" transform="translate(262.427,231.65) rotate(-89.7796)">
			<title>普通箭头.43</title>
			<v:userDefs>
				<v:ud v:nameU="visVersion" v:val="VT0(15):26"/>
				<v:ud v:nameU="ArrowType" v:prompt="" v:val="VT0(2):26"/>
			</v:userDefs>
			<path d="M0 314.54 L11.34 303.2 L11.34 308.87 L70.86 308.87 L70.86 314.54 L70.86 320.21 L11.34 320.21 L11.34 325.88 L0
						 314.54 Z" class="st3"/>
		</g>
		<g id="shape44-135" v:mID="44" v:groupContext="shape" transform="translate(588.398,-231.65)">
			<title>椭圆形.44</title>
			<desc>Xen 3.0发布</desc>
			<v:userDefs>
				<v:ud v:nameU="visVersion" v:val="VT0(15):26"/>
			</v:userDefs>
			<v:textBlock v:margins="rect(4,4,4,4)" v:tabSpace="42.5197"/>
			<v:textRect cx="45.3067" cy="282.47" width="79.29" height="56.1222"/>
			<path d="M0 282.47 A45.3067 32.0698 0 0 1 90.61 282.47 A45.3067 32.0698 0 0 1 0 282.47 Z" class="st3"/>
			<text x="10.07" y="287.13" class="st6" v:langID="2052"><v:paragraph v:horizAlign="1"/><v:tabList/>Xen 3.0<tspan
						class="st7">发布</tspan></text>		</g>
		<g id="shape45-140" v:mID="45" v:groupContext="shape" transform="translate(948.228,79.7339) rotate(89.4251)">
			<title>普通箭头.45</title>
			<v:userDefs>
				<v:ud v:nameU="visVersion" v:val="VT0(15):26"/>
				<v:ud v:nameU="ArrowType" v:prompt="" v:val="VT0(2):26"/>
			</v:userDefs>
			<path d="M0 314.54 L11.34 303.2 L11.34 308.87 L55.01 308.87 L55.01 314.54 L55.01 320.21 L11.34 320.21 L11.34 325.88 L0
						 314.54 Z" class="st3"/>
		</g>
		<g id="shape46-143" v:mID="46" v:groupContext="shape" transform="translate(643.926,-18.75)">
			<title>椭圆形.46</title>
			<desc>KVM诞生</desc>
			<v:userDefs>
				<v:ud v:nameU="visVersion" v:val="VT0(15):26"/>
			</v:userDefs>
			<v:textBlock v:margins="rect(4,4,4,4)" v:tabSpace="42.5197"/>
			<v:textRect cx="47.3508" cy="283.075" width="82.87" height="55.0633"/>
			<path d="M0 283.07 A47.3508 31.4647 0 1 1 94.7 283.07 A47.3508 31.4647 0 0 1 0 283.07 Z" class="st3"/>
			<text x="19.76" y="287.73" class="st6" v:langID="2052"><v:paragraph v:horizAlign="1"/><v:tabList/>KVM<tspan class="st7">诞生</tspan></text>		</g>
		<g id="shape47-148" v:mID="47" v:groupContext="shape" transform="translate(376.737,232.86) rotate(-90)">
			<title>普通箭头.47</title>
			<v:userDefs>
				<v:ud v:nameU="visVersion" v:val="VT0(15):26"/>
				<v:ud v:nameU="ArrowType" v:prompt="" v:val="VT0(2):26"/>
			</v:userDefs>
			<path d="M0 314.54 L11.34 303.2 L11.34 308.87 L70.86 308.87 L70.86 314.54 L70.86 320.21 L11.34 320.21 L11.34 325.88 L0
						 314.54 Z" class="st3"/>
		</g>
		<g id="shape48-151" v:mID="48" v:groupContext="shape" transform="translate(701.784,-231.65)">
			<title>椭圆形.48</title>
			<desc>VirtualBox发布</desc>
			<v:userDefs>
				<v:ud v:nameU="visVersion" v:val="VT0(15):26"/>
			</v:userDefs>
			<v:textBlock v:margins="rect(4,4,4,4)" v:tabSpace="42.5197"/>
			<v:textRect cx="45.3067" cy="282.47" width="79.29" height="56.1222"/>
			<path d="M0 282.47 A45.3067 32.0698 0 0 1 90.61 282.47 A45.3067 32.0698 0 0 1 0 282.47 Z" class="st3"/>
			<text x="15.78" y="277.35" class="st6" v:langID="2052"><v:paragraph v:horizAlign="1"/><v:tabList/>VirtualBox<tspan
						x="31.31" dy="1.298em" class="st7">发布</tspan></text>		</g>
		<g id="shape49-156" v:mID="49" v:groupContext="shape" transform="translate(1061.55,75.9952) rotate(88.744)">
			<title>普通箭头.49</title>
			<v:userDefs>
				<v:ud v:nameU="visVersion" v:val="VT0(15):26"/>
				<v:ud v:nameU="ArrowType" v:prompt="" v:val="VT0(2):26"/>
			</v:userDefs>
			<path d="M0 314.54 L11.34 303.2 L11.34 308.87 L55.02 308.87 L55.02 314.54 L55.02 320.21 L11.34 320.21 L11.34 325.88 L0
						 314.54 Z" class="st3"/>
		</g>
	</g>
</svg>
