<?xml version="1.0" encoding="UTF-8" standalone="no"?>
<!DOCTYPE svg PUBLIC "-//W3C//DTD SVG 1.1//EN" "http://www.w3.org/Graphics/SVG/1.1/DTD/svg11.dtd">
<!-- 由 Microsoft Visio, SVG Export 生成 图 1-1 云原生的历史.svg Page-1 -->
<svg xmlns="http://www.w3.org/2000/svg" xmlns:xlink="http://www.w3.org/1999/xlink" xmlns:ev="http://www.w3.org/2001/xml-events"
		xmlns:v="http://schemas.microsoft.com/visio/2003/SVGExtensions/" width="11.6929in" height="8.26772in"
		viewBox="0 0 841.89 595.276" xml:space="preserve" color-interpolation-filters="sRGB" class="st9">
	<v:documentProperties v:langID="2052" v:metric="true" v:viewMarkup="false">
		<v:userDefs>
			<v:ud v:nameU="msvSubprocessMaster" v:prompt="" v:val="VT4(Rectangle)"/>
			<v:ud v:nameU="msvNoAutoConnect" v:val="VT0(1):26"/>
		</v:userDefs>
	</v:documentProperties>

	<style type="text/css">
	<![CDATA[
		.st1 {fill:url(#grad0-4);stroke:#3c63ac;stroke-width:0.75}
		.st2 {fill:#3c63ac;font-family:Calibri;font-size:1.5em}
		.st3 {fill:url(#grad0-21);stroke:#3c63ac;stroke-width:0.75}
		.st4 {fill:#3c63ac;font-family:黑体;font-size:1.16666em}
		.st5 {font-size:1em}
		.st6 {fill:#3c63ac;font-family:Calibri;font-size:1.16666em}
		.st7 {font-family:黑体;font-size:1em}
		.st8 {font-family:Calibri;font-size:1em}
		.st9 {fill:none;fill-rule:evenodd;font-size:12px;overflow:visible;stroke-linecap:square;stroke-miterlimit:3}
	]]>
	</style>

	<defs id="Patterns_And_Gradients">
		<linearGradient id="grad0-4" x1="0" y1="0" x2="1" y2="0" gradientTransform="rotate(60 0.5 0.5)">
			<stop offset="0" stop-color="#e9ebf5" stop-opacity="1"/>
			<stop offset="0.24" stop-color="#f4f5fa" stop-opacity="1"/>
			<stop offset="0.54" stop-color="#feffff" stop-opacity="1"/>
		</linearGradient>
		<linearGradient id="grad0-21" x1="0" y1="0" x2="1" y2="0" gradientTransform="rotate(60 0.5 0.5)">
			<stop offset="0" stop-color="#e8ebf4" stop-opacity="1"/>
			<stop offset="0.24" stop-color="#f4f5f9" stop-opacity="1"/>
			<stop offset="0.54" stop-color="#feffff" stop-opacity="1"/>
		</linearGradient>
	</defs>
	<g v:mID="0" v:index="1" v:groupContext="foregroundPage">
		<v:userDefs>
			<v:ud v:nameU="msvThemeOrder" v:val="VT0(0):26"/>
		</v:userDefs>
		<title>页-1</title>
		<v:pageProperties v:drawingScale="0.0393701" v:pageScale="0.0393701" v:drawingUnits="24" v:shadowOffsetX="8.50394"
				v:shadowOffsetY="-8.50394"/>
		<g id="shape4-1" v:mID="4" v:groupContext="shape" transform="translate(34.7967,-303.872)">
			<title>矩形</title>
			<desc>1955</desc>
			<v:userDefs>
				<v:ud v:nameU="visVersion" v:val="VT0(15):26"/>
			</v:userDefs>
			<v:textBlock v:margins="rect(4,4,4,4)" v:tabSpace="42.5197"/>
			<v:textRect cx="28.51" cy="583.228" width="57.02" height="24.0945"/>
			<rect x="0" y="571.181" width="57.02" height="24.0945" class="st1"/>
			<text x="10.26" y="588.63" class="st2" v:langID="2052"><v:paragraph v:horizAlign="1"/><v:tabList/>1955</text>		</g>
		<g id="shape5-6" v:mID="5" v:groupContext="shape" transform="translate(91.8167,-303.872)">
			<title>矩形.5</title>
			<desc>1959</desc>
			<v:userDefs>
				<v:ud v:nameU="visVersion" v:val="VT0(15):26"/>
			</v:userDefs>
			<v:textBlock v:margins="rect(4,4,4,4)" v:tabSpace="42.5197"/>
			<v:textRect cx="28.51" cy="583.228" width="57.02" height="24.0945"/>
			<rect x="0" y="571.181" width="57.02" height="24.0945" class="st1"/>
			<text x="10.26" y="588.63" class="st2" v:langID="2052"><v:paragraph v:horizAlign="1"/><v:tabList/>1959</text>		</g>
		<g id="shape6-10" v:mID="6" v:groupContext="shape" transform="translate(148.837,-303.872)">
			<title>矩形.6</title>
			<desc>1965</desc>
			<v:userDefs>
				<v:ud v:nameU="visVersion" v:val="VT0(15):26"/>
			</v:userDefs>
			<v:textBlock v:margins="rect(4,4,4,4)" v:tabSpace="42.5197"/>
			<v:textRect cx="28.51" cy="583.228" width="57.02" height="24.0945"/>
			<rect x="0" y="571.181" width="57.02" height="24.0945" class="st1"/>
			<text x="10.26" y="588.63" class="st2" v:langID="2052"><v:paragraph v:horizAlign="1"/><v:tabList/>1965</text>		</g>
		<g id="shape7-14" v:mID="7" v:groupContext="shape" transform="translate(205.857,-303.872)">
			<title>矩形.7</title>
			<desc>1969</desc>
			<v:userDefs>
				<v:ud v:nameU="visVersion" v:val="VT0(15):26"/>
			</v:userDefs>
			<v:textBlock v:margins="rect(4,4,4,4)" v:tabSpace="42.5197"/>
			<v:textRect cx="28.51" cy="583.228" width="57.02" height="24.0945"/>
			<rect x="0" y="571.181" width="57.02" height="24.0945" class="st1"/>
			<text x="10.26" y="588.63" class="st2" v:langID="2052"><v:paragraph v:horizAlign="1"/><v:tabList/>1969</text>		</g>
		<g id="shape9-18" v:mID="9" v:groupContext="shape" transform="translate(18,-382.979)">
			<title>椭圆形</title>
			<desc>分时理论 提出</desc>
			<v:userDefs>
				<v:ud v:nameU="visVersion" v:val="VT0(15):26"/>
			</v:userDefs>
			<v:textBlock v:margins="rect(4,4,4,4)" v:tabSpace="42.5197"/>
			<v:textRect cx="45.3067" cy="563.206" width="79.29" height="56.1222"/>
			<path d="M0 563.21 A45.3067 32.0698 0 0 1 90.61 563.21 A45.3067 32.0698 0 0 1 0 563.21 Z" class="st3"/>
			<text x="17.31" y="558.55" class="st4" v:langID="2052"><v:paragraph v:horizAlign="1"/><v:tabList/>分时理论<v:newlineChar/><tspan
						x="31.31" dy="1.331em" class="st5">提出</tspan></text>		</g>
		<g id="shape10-24" v:mID="10" v:groupContext="shape" transform="translate(262.877,-303.872)">
			<title>矩形.10</title>
			<desc>1978</desc>
			<v:userDefs>
				<v:ud v:nameU="visVersion" v:val="VT0(15):26"/>
			</v:userDefs>
			<v:textBlock v:margins="rect(4,4,4,4)" v:tabSpace="42.5197"/>
			<v:textRect cx="28.51" cy="583.228" width="57.02" height="24.0945"/>
			<rect x="0" y="571.181" width="57.02" height="24.0945" class="st1"/>
			<text x="10.26" y="588.63" class="st2" v:langID="2052"><v:paragraph v:horizAlign="1"/><v:tabList/>1978</text>		</g>
		<g id="shape11-28" v:mID="11" v:groupContext="shape" transform="translate(73.0644,-170.079)">
			<title>椭圆形.11</title>
			<desc>提出 虚拟化概念</desc>
			<v:userDefs>
				<v:ud v:nameU="visVersion" v:val="VT0(15):26"/>
			</v:userDefs>
			<v:textBlock v:margins="rect(4,4,4,4)" v:tabSpace="42.5197"/>
			<v:textRect cx="47.3508" cy="563.811" width="82.87" height="55.0633"/>
			<path d="M0 563.81 A47.3508 31.4647 0 1 1 94.7 563.81 A47.3508 31.4647 0 0 1 0 563.81 Z" class="st3"/>
			<text x="33.35" y="559.15" class="st4" v:langID="2052"><v:paragraph v:horizAlign="1"/><v:tabList/>提出<v:newlineChar/><tspan
						x="12.35" dy="1.331em" class="st5">虚拟化概念</tspan></text>		</g>
		<g id="shape12-33" v:mID="12" v:groupContext="shape" transform="translate(-474.86,363.011) rotate(-90.0716)">
			<title>普通箭头.12</title>
			<v:userDefs>
				<v:ud v:nameU="visVersion" v:val="VT0(15):26"/>
				<v:ud v:nameU="ArrowType" v:prompt="" v:val="VT0(2):26"/>
			</v:userDefs>
			<path d="M0 595.28 L11.34 583.94 L11.34 589.61 L70.86 589.61 L70.86 595.28 L70.86 600.94 L11.34 600.94 L11.34 606.61
						 L0 595.28 Z" class="st3"/>
		</g>
		<g id="shape13-36" v:mID="13" v:groupContext="shape" transform="translate(132.592,-382.979)">
			<title>椭圆形.13</title>
			<desc>分时共享 系统</desc>
			<v:userDefs>
				<v:ud v:nameU="visVersion" v:val="VT0(15):26"/>
			</v:userDefs>
			<v:textBlock v:margins="rect(4,4,4,4)" v:tabSpace="42.5197"/>
			<v:textRect cx="45.3067" cy="563.206" width="79.29" height="56.1222"/>
			<path d="M0 563.21 A45.3067 32.0698 0 0 1 90.61 563.21 A45.3067 32.0698 0 0 1 0 563.21 Z" class="st3"/>
			<text x="17.31" y="558.55" class="st4" v:langID="2052"><v:paragraph v:horizAlign="1"/><v:tabList/>分时共享<v:newlineChar/><tspan
						x="31.31" dy="1.331em" class="st5">系统</tspan></text>		</g>
		<g id="shape15-41" v:mID="15" v:groupContext="shape" transform="translate(773.144,218.27) rotate(90.5749)">
			<title>普通箭头.15</title>
			<v:custProps>
				<v:cp v:nameU="Row_1" v:lbl="属性1" v:type="0" v:langID="2052"/>
			</v:custProps>
			<v:userDefs>
				<v:ud v:nameU="visVersion" v:val="VT0(15):26"/>
				<v:ud v:nameU="ArrowType" v:prompt="" v:val="VT0(2):26"/>
			</v:userDefs>
			<path d="M0 595.28 L11.34 583.94 L11.34 589.61 L55.01 589.61 L55.01 595.28 L55.01 600.94 L11.34 600.94 L11.34 606.61
						 L0 595.28 Z" class="st3"/>
		</g>
		<g id="shape16-44" v:mID="16" v:groupContext="shape" transform="translate(189.026,-170.079)">
			<title>椭圆形.16</title>
			<desc>ARPANET 出现</desc>
			<v:userDefs>
				<v:ud v:nameU="visVersion" v:val="VT0(15):26"/>
			</v:userDefs>
			<v:textBlock v:margins="rect(4,4,4,4)" v:tabSpace="42.5197"/>
			<v:textRect cx="47.3508" cy="563.811" width="82.87" height="55.0633"/>
			<path d="M0 563.81 A47.3508 31.4647 0 1 1 94.7 563.81 A47.3508 31.4647 0 0 1 0 563.81 Z" class="st3"/>
			<text x="20.49" y="558.69" class="st6" v:langID="2052"><v:paragraph v:horizAlign="1"/><v:tabList/>ARPANET<v:newlineChar/><tspan
						x="33.35" dy="1.298em" class="st7">出现</tspan></text>		</g>
		<g id="shape17-49" v:mID="17" v:groupContext="shape" transform="translate(-358.66,379.146) rotate(-91.6248)">
			<title>普通箭头.17</title>
			<v:userDefs>
				<v:ud v:nameU="visVersion" v:val="VT0(15):26"/>
				<v:ud v:nameU="ArrowType" v:prompt="" v:val="VT0(2):26"/>
			</v:userDefs>
			<path d="M0 595.28 L11.34 583.94 L11.34 589.61 L70.89 589.61 L70.89 595.28 L70.89 600.94 L11.34 600.94 L11.34 606.61
						 L0 595.28 Z" class="st3"/>
		</g>
		<g id="shape18-52" v:mID="18" v:groupContext="shape" transform="translate(246.073,-382.979)">
			<title>椭圆形.18</title>
			<desc>Raid技术</desc>
			<v:userDefs>
				<v:ud v:nameU="visVersion" v:val="VT0(15):26"/>
			</v:userDefs>
			<v:textBlock v:margins="rect(4,4,4,4)" v:tabSpace="42.5197"/>
			<v:textRect cx="45.3067" cy="563.206" width="79.29" height="56.1222"/>
			<path d="M0 563.21 A45.3067 32.0698 0 0 1 90.61 563.21 A45.3067 32.0698 0 0 1 0 563.21 Z" class="st3"/>
			<text x="18.87" y="567.87" class="st6" v:langID="2052"><v:paragraph v:horizAlign="1"/><v:tabList/>Raid<tspan
						class="st7">技术</tspan></text>		</g>
		<g id="shape21-57" v:mID="21" v:groupContext="shape" transform="translate(658.582,212.297) rotate(90)">
			<title>普通箭头.21</title>
			<v:custProps>
				<v:cp v:nameU="Row_1" v:lbl="属性1" v:type="0" v:langID="2052"/>
			</v:custProps>
			<v:userDefs>
				<v:ud v:nameU="visVersion" v:val="VT0(15):26"/>
				<v:ud v:nameU="ArrowType" v:prompt="" v:val="VT0(2):26"/>
			</v:userDefs>
			<path d="M0 595.28 L11.34 583.94 L11.34 589.61 L55.01 589.61 L55.01 595.28 L55.01 600.94 L11.34 600.94 L11.34 606.61
						 L0 595.28 Z" class="st3"/>
		</g>
		<g id="shape22-60" v:mID="22" v:groupContext="shape" transform="translate(319.897,-303.872)">
			<title>矩形.22</title>
			<desc>1990</desc>
			<v:userDefs>
				<v:ud v:nameU="visVersion" v:val="VT0(15):26"/>
			</v:userDefs>
			<v:textBlock v:margins="rect(4,4,4,4)" v:tabSpace="42.5197"/>
			<v:textRect cx="28.51" cy="583.228" width="57.02" height="24.0945"/>
			<rect x="0" y="571.181" width="57.02" height="24.0945" class="st1"/>
			<text x="10.26" y="588.63" class="st2" v:langID="2052"><v:paragraph v:horizAlign="1"/><v:tabList/>1990</text>		</g>
		<g id="shape23-64" v:mID="23" v:groupContext="shape" transform="translate(376.917,-303.872)">
			<title>矩形.23</title>
			<desc>1998</desc>
			<v:userDefs>
				<v:ud v:nameU="visVersion" v:val="VT0(15):26"/>
			</v:userDefs>
			<v:textBlock v:margins="rect(4,4,4,4)" v:tabSpace="42.5197"/>
			<v:textRect cx="28.51" cy="583.228" width="57.02" height="24.0945"/>
			<rect x="0" y="571.181" width="57.02" height="24.0945" class="st1"/>
			<text x="10.26" y="588.63" class="st2" v:langID="2052"><v:paragraph v:horizAlign="1"/><v:tabList/>1998</text>		</g>
		<g id="shape24-68" v:mID="24" v:groupContext="shape" transform="translate(434.155,-303.872)">
			<title>矩形.24</title>
			<desc>1999</desc>
			<v:userDefs>
				<v:ud v:nameU="visVersion" v:val="VT0(15):26"/>
			</v:userDefs>
			<v:textBlock v:margins="rect(4,4,4,4)" v:tabSpace="42.5197"/>
			<v:textRect cx="28.51" cy="583.228" width="57.02" height="24.0945"/>
			<rect x="0" y="571.181" width="57.02" height="24.0945" class="st1"/>
			<text x="10.26" y="588.63" class="st2" v:langID="2052"><v:paragraph v:horizAlign="1"/><v:tabList/>1999</text>		</g>
		<g id="shape25-72" v:mID="25" v:groupContext="shape" transform="translate(490.957,-303.872)">
			<title>矩形.25</title>
			<desc>2000</desc>
			<v:userDefs>
				<v:ud v:nameU="visVersion" v:val="VT0(15):26"/>
			</v:userDefs>
			<v:textBlock v:margins="rect(4,4,4,4)" v:tabSpace="42.5197"/>
			<v:textRect cx="28.51" cy="583.228" width="57.02" height="24.0945"/>
			<rect x="0" y="571.181" width="57.02" height="24.0945" class="st1"/>
			<text x="10.26" y="588.63" class="st2" v:langID="2052"><v:paragraph v:horizAlign="1"/><v:tabList/>2000</text>		</g>
		<g id="shape26-76" v:mID="26" v:groupContext="shape" transform="translate(547.977,-303.872)">
			<title>矩形.26</title>
			<desc>2002</desc>
			<v:userDefs>
				<v:ud v:nameU="visVersion" v:val="VT0(15):26"/>
			</v:userDefs>
			<v:textBlock v:margins="rect(4,4,4,4)" v:tabSpace="42.5197"/>
			<v:textRect cx="28.51" cy="583.228" width="57.02" height="24.0945"/>
			<rect x="0" y="571.181" width="57.02" height="24.0945" class="st1"/>
			<text x="10.26" y="588.63" class="st2" v:langID="2052"><v:paragraph v:horizAlign="1"/><v:tabList/>2002</text>		</g>
		<g id="shape27-80" v:mID="27" v:groupContext="shape" transform="translate(604.997,-303.872)">
			<title>矩形.27</title>
			<desc>2005</desc>
			<v:userDefs>
				<v:ud v:nameU="visVersion" v:val="VT0(15):26"/>
			</v:userDefs>
			<v:textBlock v:margins="rect(4,4,4,4)" v:tabSpace="42.5197"/>
			<v:textRect cx="28.51" cy="583.228" width="57.02" height="24.0945"/>
			<rect x="0" y="571.181" width="57.02" height="24.0945" class="st1"/>
			<text x="10.26" y="588.63" class="st2" v:langID="2052"><v:paragraph v:horizAlign="1"/><v:tabList/>2005</text>		</g>
		<g id="shape28-84" v:mID="28" v:groupContext="shape" transform="translate(662.017,-303.872)">
			<title>矩形.28</title>
			<desc>2006</desc>
			<v:userDefs>
				<v:ud v:nameU="visVersion" v:val="VT0(15):26"/>
			</v:userDefs>
			<v:textBlock v:margins="rect(4,4,4,4)" v:tabSpace="42.5197"/>
			<v:textRect cx="28.51" cy="583.228" width="57.02" height="24.0945"/>
			<rect x="0" y="571.181" width="57.02" height="24.0945" class="st1"/>
			<text x="10.26" y="588.63" class="st2" v:langID="2052"><v:paragraph v:horizAlign="1"/><v:tabList/>2006</text>		</g>
		<g id="shape29-88" v:mID="29" v:groupContext="shape" transform="translate(719.037,-303.872)">
			<title>矩形.29</title>
			<desc>2009</desc>
			<v:userDefs>
				<v:ud v:nameU="visVersion" v:val="VT0(15):26"/>
			</v:userDefs>
			<v:textBlock v:margins="rect(4,4,4,4)" v:tabSpace="42.5197"/>
			<v:textRect cx="28.51" cy="583.228" width="57.02" height="24.0945"/>
			<rect x="0" y="571.181" width="57.02" height="24.0945" class="st1"/>
			<text x="10.26" y="588.63" class="st2" v:langID="2052"><v:paragraph v:horizAlign="1"/><v:tabList/>2009</text>		</g>
		<g id="shape31-92" v:mID="31" v:groupContext="shape" transform="translate(302.092,-170.079)">
			<title>椭圆形.31</title>
			<desc>网格计算</desc>
			<v:userDefs>
				<v:ud v:nameU="visVersion" v:val="VT0(15):26"/>
			</v:userDefs>
			<v:textBlock v:margins="rect(4,4,4,4)" v:tabSpace="42.5197"/>
			<v:textRect cx="47.3508" cy="563.811" width="82.87" height="55.0633"/>
			<path d="M0 563.81 A47.3508 31.4647 0 1 1 94.7 563.81 A47.3508 31.4647 0 0 1 0 563.81 Z" class="st3"/>
			<text x="19.35" y="568.47" class="st4" v:langID="2052"><v:paragraph v:horizAlign="1"/><v:tabList/>网格计算</text>		</g>
		<g id="shape32-96" v:mID="32" v:groupContext="shape" transform="translate(-245.77,370.967) rotate(-90.8374)">
			<title>普通箭头.32</title>
			<v:userDefs>
				<v:ud v:nameU="visVersion" v:val="VT0(15):26"/>
				<v:ud v:nameU="ArrowType" v:prompt="" v:val="VT0(2):26"/>
			</v:userDefs>
			<path d="M0 595.28 L11.34 583.94 L11.34 589.61 L70.87 589.61 L70.87 595.28 L70.87 600.94 L11.34 600.94 L11.34 606.61
						 L0 595.28 Z" class="st3"/>
		</g>
		<g id="shape33-99" v:mID="33" v:groupContext="shape" transform="translate(360.781,-382.979)">
			<title>椭圆形.33</title>
			<desc>引入x86 虚拟技术</desc>
			<v:userDefs>
				<v:ud v:nameU="visVersion" v:val="VT0(15):26"/>
			</v:userDefs>
			<v:textBlock v:margins="rect(4,4,4,4)" v:tabSpace="42.5197"/>
			<v:textRect cx="45.3067" cy="563.206" width="79.29" height="56.1222"/>
			<path d="M0 563.21 A45.3067 32.0698 0 0 1 90.61 563.21 A45.3067 32.0698 0 0 1 0 563.21 Z" class="st3"/>
			<text x="21.18" y="558.55" class="st4" v:langID="2052"><v:paragraph v:horizAlign="1"/><v:tabList/>引入<tspan class="st8">x86<v:newlineChar/></tspan><tspan
						x="17.31" dy="1.331em" class="st5">虚拟技术</tspan></text>		</g>
		<g id="shape35-105" v:mID="35" v:groupContext="shape" transform="translate(1001.32,219.449) rotate(90.6884)">
			<title>普通箭头.35</title>
			<v:userDefs>
				<v:ud v:nameU="visVersion" v:val="VT0(15):26"/>
				<v:ud v:nameU="ArrowType" v:prompt="" v:val="VT0(2):26"/>
			</v:userDefs>
			<path d="M0 595.28 L11.34 583.94 L11.34 589.61 L55.02 589.61 L55.02 595.28 L55.02 600.94 L11.34 600.94 L11.34 606.61
						 L0 595.28 Z" class="st3"/>
		</g>
		<g id="shape36-108" v:mID="36" v:groupContext="shape" transform="translate(886.655,212.223) rotate(89.9929)">
			<title>普通箭头.36</title>
			<v:userDefs>
				<v:ud v:nameU="visVersion" v:val="VT0(15):26"/>
				<v:ud v:nameU="ArrowType" v:prompt="" v:val="VT0(2):26"/>
			</v:userDefs>
			<path d="M0 595.28 L11.34 583.94 L11.34 589.61 L55.01 589.61 L55.01 595.28 L55.01 600.94 L11.34 600.94 L11.34 606.61
						 L0 595.28 Z" class="st3"/>
		</g>
		<g id="shape38-111" v:mID="38" v:groupContext="shape" transform="translate(415.477,-170.079)">
			<title>椭圆形.38</title>
			<desc>VMWare 工作站</desc>
			<v:userDefs>
				<v:ud v:nameU="visVersion" v:val="VT0(15):26"/>
			</v:userDefs>
			<v:textBlock v:margins="rect(4,4,4,4)" v:tabSpace="42.5197"/>
			<v:textRect cx="47.3508" cy="563.811" width="82.87" height="55.0633"/>
			<path d="M0 563.81 A47.3508 31.4647 0 1 1 94.7 563.81 A47.3508 31.4647 0 0 1 0 563.81 Z" class="st3"/>
			<text x="21.89" y="558.69" class="st6" v:langID="2052"><v:paragraph v:horizAlign="1"/><v:tabList/>VMWare<v:newlineChar/><tspan
						x="26.35" dy="1.298em" class="st7">工作站</tspan></text>		</g>
		<g id="shape39-116" v:mID="39" v:groupContext="shape" transform="translate(-132.446,363.641) rotate(-90.1322)">
			<title>普通箭头.39</title>
			<v:userDefs>
				<v:ud v:nameU="visVersion" v:val="VT0(15):26"/>
				<v:ud v:nameU="ArrowType" v:prompt="" v:val="VT0(2):26"/>
			</v:userDefs>
			<path d="M0 595.28 L11.34 583.94 L11.34 589.61 L70.86 589.61 L70.86 595.28 L70.86 600.94 L11.34 600.94 L11.34 606.61
						 L0 595.28 Z" class="st3"/>
		</g>
		<g id="shape40-119" v:mID="40" v:groupContext="shape" transform="translate(471.38,-382.979)">
			<title>椭圆形.40</title>
			<desc>颁布 VPN标准</desc>
			<v:userDefs>
				<v:ud v:nameU="visVersion" v:val="VT0(15):26"/>
			</v:userDefs>
			<v:textBlock v:margins="rect(4,4,4,4)" v:tabSpace="42.5197"/>
			<v:textRect cx="45.3067" cy="563.206" width="79.29" height="56.1222"/>
			<path d="M0 563.21 A45.3067 32.0698 0 0 1 90.61 563.21 A45.3067 32.0698 0 0 1 0 563.21 Z" class="st3"/>
			<text x="31.31" y="558.55" class="st4" v:langID="2052"><v:paragraph v:horizAlign="1"/><v:tabList/>颁布<v:newlineChar/><tspan
						x="19.2" dy="1.331em" class="st8">VPN</tspan>标准</text>		</g>
		<g id="shape41-124" v:mID="41" v:groupContext="shape" transform="translate(1111.2,182.252) rotate(87.1069)">
			<title>普通箭头.41</title>
			<v:userDefs>
				<v:ud v:nameU="visVersion" v:val="VT0(15):26"/>
				<v:ud v:nameU="ArrowType" v:prompt="" v:val="VT0(2):26"/>
			</v:userDefs>
			<path d="M0 595.28 L11.34 583.94 L11.34 589.61 L55.08 589.61 L55.08 595.28 L55.08 600.94 L11.34 600.94 L11.34 606.61
						 L0 595.28 Z" class="st3"/>
		</g>
		<g id="shape42-127" v:mID="42" v:groupContext="shape" transform="translate(528.863,-170.079)">
			<title>椭圆形.42</title>
			<desc>AWS上线</desc>
			<v:userDefs>
				<v:ud v:nameU="visVersion" v:val="VT0(15):26"/>
			</v:userDefs>
			<v:textBlock v:margins="rect(4,4,4,4)" v:tabSpace="42.5197"/>
			<v:textRect cx="47.3508" cy="563.811" width="82.87" height="55.0633"/>
			<path d="M0 563.81 A47.3508 31.4647 0 1 1 94.7 563.81 A47.3508 31.4647 0 0 1 0 563.81 Z" class="st3"/>
			<text x="19.86" y="568.47" class="st6" v:langID="2052"><v:paragraph v:horizAlign="1"/><v:tabList/>AWS<tspan class="st7">上线</tspan></text>		</g>
		<g id="shape43-132" v:mID="43" v:groupContext="shape" transform="translate(-19.0572,359.978) rotate(-89.7796)">
			<title>普通箭头.43</title>
			<v:userDefs>
				<v:ud v:nameU="visVersion" v:val="VT0(15):26"/>
				<v:ud v:nameU="ArrowType" v:prompt="" v:val="VT0(2):26"/>
			</v:userDefs>
			<path d="M0 595.28 L11.34 583.94 L11.34 589.61 L70.86 589.61 L70.86 595.28 L70.86 600.94 L11.34 600.94 L11.34 606.61
						 L0 595.28 Z" class="st3"/>
		</g>
		<g id="shape44-135" v:mID="44" v:groupContext="shape" transform="translate(587.648,-382.979)">
			<title>椭圆形.44</title>
			<desc>Xen 3.0发布</desc>
			<v:userDefs>
				<v:ud v:nameU="visVersion" v:val="VT0(15):26"/>
			</v:userDefs>
			<v:textBlock v:margins="rect(4,4,4,4)" v:tabSpace="42.5197"/>
			<v:textRect cx="45.3067" cy="563.206" width="79.29" height="56.1222"/>
			<path d="M0 563.21 A45.3067 32.0698 0 0 1 90.61 563.21 A45.3067 32.0698 0 0 1 0 563.21 Z" class="st3"/>
			<text x="10.07" y="567.87" class="st6" v:langID="2052"><v:paragraph v:horizAlign="1"/><v:tabList/>Xen 3.0<tspan
						class="st7">发布</tspan></text>		</g>
		<g id="shape45-140" v:mID="45" v:groupContext="shape" transform="translate(1228.2,206.325) rotate(89.4251)">
			<title>普通箭头.45</title>
			<v:userDefs>
				<v:ud v:nameU="visVersion" v:val="VT0(15):26"/>
				<v:ud v:nameU="ArrowType" v:prompt="" v:val="VT0(2):26"/>
			</v:userDefs>
			<path d="M0 595.28 L11.34 583.94 L11.34 589.61 L55.01 589.61 L55.01 595.28 L55.01 600.94 L11.34 600.94 L11.34 606.61
						 L0 595.28 Z" class="st3"/>
		</g>
		<g id="shape46-143" v:mID="46" v:groupContext="shape" transform="translate(643.176,-170.079)">
			<title>椭圆形.46</title>
			<desc>KVM诞生</desc>
			<v:userDefs>
				<v:ud v:nameU="visVersion" v:val="VT0(15):26"/>
			</v:userDefs>
			<v:textBlock v:margins="rect(4,4,4,4)" v:tabSpace="42.5197"/>
			<v:textRect cx="47.3508" cy="563.811" width="82.87" height="55.0633"/>
			<path d="M0 563.81 A47.3508 31.4647 0 1 1 94.7 563.81 A47.3508 31.4647 0 0 1 0 563.81 Z" class="st3"/>
			<text x="19.76" y="568.47" class="st6" v:langID="2052"><v:paragraph v:horizAlign="1"/><v:tabList/>KVM<tspan class="st7">诞生</tspan></text>		</g>
		<g id="shape47-148" v:mID="47" v:groupContext="shape" transform="translate(95.2509,362.267) rotate(-90)">
			<title>普通箭头.47</title>
			<v:userDefs>
				<v:ud v:nameU="visVersion" v:val="VT0(15):26"/>
				<v:ud v:nameU="ArrowType" v:prompt="" v:val="VT0(2):26"/>
			</v:userDefs>
			<path d="M0 595.28 L11.34 583.94 L11.34 589.61 L70.86 589.61 L70.86 595.28 L70.86 600.94 L11.34 600.94 L11.34 606.61
						 L0 595.28 Z" class="st3"/>
		</g>
		<g id="shape48-151" v:mID="48" v:groupContext="shape" transform="translate(701.034,-382.979)">
			<title>椭圆形.48</title>
			<desc>VirtualBox发布</desc>
			<v:userDefs>
				<v:ud v:nameU="visVersion" v:val="VT0(15):26"/>
			</v:userDefs>
			<v:textBlock v:margins="rect(4,4,4,4)" v:tabSpace="42.5197"/>
			<v:textRect cx="45.3067" cy="563.206" width="79.29" height="56.1222"/>
			<path d="M0 563.21 A45.3067 32.0698 0 0 1 90.61 563.21 A45.3067 32.0698 0 0 1 0 563.21 Z" class="st3"/>
			<text x="15.78" y="558.09" class="st6" v:langID="2052"><v:paragraph v:horizAlign="1"/><v:tabList/>VirtualBox<tspan
						x="31.31" dy="1.298em" class="st7">发布</tspan></text>		</g>
		<g id="shape49-156" v:mID="49" v:groupContext="shape" transform="translate(1341.47,199.249) rotate(88.744)">
			<title>普通箭头.49</title>
			<v:userDefs>
				<v:ud v:nameU="visVersion" v:val="VT0(15):26"/>
				<v:ud v:nameU="ArrowType" v:prompt="" v:val="VT0(2):26"/>
			</v:userDefs>
			<path d="M0 595.28 L11.34 583.94 L11.34 589.61 L55.02 589.61 L55.02 595.28 L55.02 600.94 L11.34 600.94 L11.34 606.61
						 L0 595.28 Z" class="st3"/>
		</g>
	</g>
</svg>
